<svg width="45" height="53" viewBox="0 0 45 53" fill="none" xmlns="http://www.w3.org/2000/svg">
<g clip-path="url(#clip0_70_2)">
<path d="M39.1139 15.6892C31.3291 15.6892 27.3418 13.9888 21.2658 14.3667C17.8329 14.5783 9.11392 15.8782 9.11392 23.8134C9.11392 27.2143 11.0127 31.3708 17.8481 34.7717C9.49367 34.7717 0 28.7257 0 16.256C0 3.78634 11.3886 -0.20774 21.6456 0.00764608C30.5696 0.196581 33.6076 0.95232 39.1139 0.362844V15.6892Z" fill="#006AAC"/>
<path d="M22.595 33.449C26.5798 33.449 29.8101 30.2346 29.8101 26.2695C29.8101 22.3043 26.5798 19.09 22.595 19.09C18.6101 19.09 15.3798 22.3043 15.3798 26.2695C15.3798 30.2346 18.6101 33.449 22.595 33.449Z" fill="#01A493"/>
<path d="M5.88605 37.3109C13.6709 37.3109 17.6582 39.0113 23.7341 38.6334C27.1671 38.4218 35.886 37.1219 35.886 29.1867C35.886 25.7858 33.9873 21.6293 27.1519 18.2285C35.5063 18.2285 45 24.2744 45 36.7441C45 49.2138 33.6114 53.2079 23.3544 52.9925C14.4304 52.8035 11.3924 52.0478 5.88605 52.6373V37.3109Z" fill="#01A493"/>
</g>
<defs>
<clipPath id="clip0_70_2">
<rect width="45" height="53" fill="white"/>
</clipPath>
</defs>
</svg>
